<svg height="248.32774" viewBox="0 0 600 369.73285" width="402.693633" xmlns="http://www.w3.org/2000/svg" xmlns:xlink="http://www.w3.org/1999/xlink"><linearGradient id="a"><stop offset="0" stop-color="#62b34f"/><stop offset=".46" stop-color="#51bab4"/><stop offset="1" stop-color="#0094d3"/></linearGradient><linearGradient id="b" gradientUnits="userSpaceOnUse" x1="556.16089" x2="320.44351" xlink:href="#a" y1="229.4901" y2="428.6407"/><linearGradient id="c" gradientUnits="userSpaceOnUse" x1="548.29382" x2="312.5239" xlink:href="#a" y1="220.1545" y2="419.3051"/><linearGradient id="d" gradientUnits="userSpaceOnUse" x1="540.13739" x2="304.41989" xlink:href="#a" y1="210.5245" y2="409.675"/><linearGradient id="e" gradientUnits="userSpaceOnUse" x1="531.83459" x2="296.0647" xlink:href="#a" y1="200.6552" y2="399.8055"/><linearGradient id="f" gradientUnits="userSpaceOnUse" x1="633.44568" x2="397.72821" xlink:href="#a" y1="320.9315" y2="520.082"/><linearGradient id="g" gradientUnits="userSpaceOnUse" x1="640.88641" x2="405.16901" xlink:href="#a" y1="329.7539" y2="528.9569"/><linearGradient id="h" gradientUnits="userSpaceOnUse" x1="648.21143" x2="412.49399" xlink:href="#a" y1="338.3773" y2="537.5802"/><linearGradient id="i" gradientUnits="userSpaceOnUse" x1="655.54169" x2="419.82419" xlink:href="#a" y1="347.0785" y2="546.2815"/><linearGradient id="j" gradientUnits="userSpaceOnUse" x1="663.43628" x2="427.71881" xlink:href="#a" y1="356.437" y2="555.64"/><linearGradient id="k" gradientUnits="userSpaceOnUse" x1="671.85931" x2="436.08939" xlink:href="#a" y1="366.3867" y2="565.5374"/><linearGradient id="l" gradientUnits="userSpaceOnUse" x1="679.9317" x2="444.16171" xlink:href="#a" y1="375.9365" y2="575.087"/><linearGradient id="m" gradientUnits="userSpaceOnUse" x1="687.50031" x2="451.7305" xlink:href="#a" y1="384.8622" y2="584.0652"/><linearGradient id="n" gradientUnits="userSpaceOnUse" x1="564.37531" x2="328.65781" xlink:href="#a" y1="239.2218" y2="438.3724"/><linearGradient id="o" gradientUnits="userSpaceOnUse" x1="572.2666" x2="336.54919" xlink:href="#a" y1="248.5433" y2="447.6938"/><linearGradient id="p" gradientUnits="userSpaceOnUse" x1="580.03589" x2="344.31851" xlink:href="#a" y1="257.7203" y2="456.9233"/><linearGradient id="q" gradientUnits="userSpaceOnUse" x1="587.92798" x2="352.2106" xlink:href="#a" y1="267.0471" y2="466.2501"/><linearGradient id="r" gradientUnits="userSpaceOnUse" x1="595.73029" x2="360.01279" xlink:href="#a" y1="276.3016" y2="475.5046"/><linearGradient id="s" gradientUnits="userSpaceOnUse" x1="603.55219" x2="367.83481" xlink:href="#a" y1="285.541" y2="484.744"/><linearGradient id="t" gradientUnits="userSpaceOnUse" x1="611.33289" x2="375.56311" xlink:href="#a" y1="294.7316" y2="493.9346"/><linearGradient id="u" gradientUnits="userSpaceOnUse" x1="618.84631" x2="383.12881" xlink:href="#a" y1="303.6633" y2="502.814"/><linearGradient id="v" gradientUnits="userSpaceOnUse" x1="626.15082" x2="390.43329" xlink:href="#a" y1="312.2817" y2="511.4847"/><linearGradient id="w" gradientUnits="userSpaceOnUse" x1="695.07471" x2="459.3573" xlink:href="#a" y1="393.8469" y2="593.05"/><linearGradient id="x" gradientUnits="userSpaceOnUse" x1="702.42249" x2="466.6525" xlink:href="#a" y1="402.5496" y2="601.7001"/><linearGradient id="y" gradientUnits="userSpaceOnUse" x1="710.17963" x2="474.40961" xlink:href="#a" y1="411.7316" y2="610.9346"/><g transform="matrix(.83668898 0 0 .83668898 -118.29749 -233.51989)"><path d="m165.6 706.6v5.5h-24.1v-4.3l15.6-24.2h-14.7v-5.4h22.6v4.4l-15.4 24zm7-14.7-1-3.8c7.7-3.4 18.2-3.8 18.2 7v16.9h-5.8v-3.1c-1.9 2.2-4.7 3.5-7.7 3.5-3.5.1-6.3-2.7-6.4-6.1 0-.2 0-.5 0-.7 0-5.6 5.3-9.5 14-9.1v-1.5c.1-6-5.9-5.3-11.3-3.1zm2.8 12.9c0 2.1 1.6 3 3.5 3 2 0 3.8-.9 5.1-2.3v-5.6c-5.8-.6-8.6 2.5-8.6 4.9zm46.7-12.9-1-3.8c7.7-3.4 18.2-3.8 18.2 7v16.9h-5.6v-3.1c-1.9 2.2-4.7 3.5-7.7 3.5-3.5.1-6.4-2.7-6.4-6.2 0-.2 0-.5 0-.7 0-5.6 5.3-9.5 14-9.1v-1.4c.1-6-6-5.3-11.5-3.1zm2.9 12.9c0 2.1 1.6 3 3.5 3 2 0 3.9-.8 5.1-2.3v-5.6c-5.8-.6-8.6 2.5-8.6 4.9zm27.2.8c-.2 1.2.7 2.3 1.9 2.5h.5c.7 0 1.4-.1 2.2-.2v4.3c-1.5.3-3 .4-4.5.4-4.4 0-5.8-2.4-5.8-6.5v-13.9h-3l.7-4.4h2.3v-6.2l5.8-1.5v7.7h4.8l-.7 4.5h-4.1v13.3zm13.4 14.7h-3.5c.9-3.5 1.5-7.1 1.9-10.7v-1.8h4.3l-.2 1.8c-.5 3.6-1.4 7.2-2.5 10.7zm25.7-36.7v28.5h-6.3v-28.5h-9.1v-5.4h24.1v5.4zm16.1 8.3-1-3.8c7.7-3.4 18.2-3.8 18.2 7v16.9h-5.8v-3.1c-1.9 2.2-4.7 3.5-7.7 3.5-3.5.1-6.4-2.7-6.4-6.2 0-.2 0-.5 0-.7 0-5.6 5.3-9.5 14-9.1v-1.4c.1-6-5.9-5.3-11.3-3.1zm2.8 12.9c0 2.1 1.6 3 3.5 3 2 0 3.8-.9 5.1-2.3v-5.6c-5.9-.6-8.6 2.5-8.6 4.9zm26-17.8 3.4 5.3 1.9 3.8 2-3.8 3.3-5.2h5.9l-7.7 12.1 8 12.8h-6.9l-3.3-5.1-2-3.8-2 3.8-3.2 5.2h-6.4l8.1-12.9-8-12.2zm34.1 4.9-1-3.8c7.7-3.4 18.2-3.8 18.2 7v16.9h-5.8v-3.1c-1.9 2.2-4.7 3.5-7.7 3.5-3.5.1-6.4-2.7-6.4-6.2 0-.2 0-.5 0-.7 0-5.6 5.3-9.5 14-9.1v-1.4c.2-6-5.8-5.3-11.3-3.1zm2.9 12.9c0 2.1 1.6 3 3.5 3 2 0 3.9-.9 5.1-2.3v-5.6c-6-.6-8.7 2.5-8.6 4.9zm20.5 7.2v-24.9h5.8v2.3c2.2-1.8 4.9-2.8 7.7-2.8 4.8 0 7.2 2.9 7.2 8.1v17.3h-5.7v-15.4c0-2.8-1.2-4.3-3.8-4.3-2 .2-3.8 1-5.3 2.3v17.4zm35.4.4c-6.3 0-9.2-5.5-9.2-13s3.2-13 9.5-13c2.4 0 4.6 1 6.2 2.8v-11.3h5.5v34.1h-5.6v-2.6c-1.6 1.9-4 2.9-6.4 3zm2.1-21.2c-3.4 0-5.3 2.9-5.3 8.1s2 8.1 5.3 8.1c1.6 0 3.2-.6 4.4-1.7v-12.9c-1.2-.9-2.8-1.5-4.4-1.6zm41.2 21.4c-10.4 0-14.7-7.1-14.7-17.5s4.3-17.5 14.7-17.5c3.8 0 7.5.8 10.9 2.5v5c-3.3-1.3-6.8-2-10.3-2.2-6 0-9.1 4.1-9.1 12.1s3.2 12 9.1 12c3.5-.1 7-.8 10.3-2v5c-3.3 1.7-7.1 2.6-10.9 2.6zm37.9-25.6v25h-5.8v-2.4c-2.1 1.9-4.9 2.9-7.7 2.9-4.8 0-7.1-2.9-7.1-8.1v-17.4h5.8v15.4c0 2.7 1.2 4.3 3.8 4.3 2-.2 3.8-1 5.3-2.3v-17.4zm5.3 23.8v-4.6c2.6 1.3 5.4 2 8.3 2.1 3.6 0 4.5-1.8 4.5-3 0-2-2.3-2.7-4.9-3.8-3.3-1.2-7.4-2.8-7.4-7.7s3.6-8.2 10.4-8.2c2.8 0 5.6.7 8.1 2v4.5c-2-1.2-4.3-1.9-6.6-2-3.8 0-5.3 1.8-5.3 3.3s2.5 2.9 5.4 3.8 7.1 2.9 7.1 7.4c0 5.2-4.2 8.2-10 8.2-3.4 0-6.6-.7-9.6-2zm31.3-5.1c-.2 1.2.7 2.3 1.9 2.5h.5c.7 0 1.4-.1 2.1-.2v4.3c-1.5.3-3 .4-4.5.4-4.4 0-5.8-2.4-5.8-6.5v-14.1h-3.1l.8-4.5h2.2v-6.1l5.8-1.5v7.7h4.8l-.8 4.5h-4.1zm8.7-6.4c0-7.4 3.5-13 11.2-13 7.6 0 11.1 5.6 11.1 13s-3.5 13-11.1 13c-7.7 0-11.2-5.6-11.2-13zm5.3 0c0 4.8 1.8 8.7 5.8 8.7s5.7-3.8 5.7-8.7-1.7-8.7-5.7-8.7-5.8 3.9-5.8 8.7zm57.9-4.7v17.4h-5.7v-15.4c0-2.8-1.2-4.3-3.8-4.3-2 .2-3.8 1-5.2 2.3v2 15.4h-5.7v-15.4c0-2.8-1.2-4.3-3.8-4.3-1.9.1-3.7 1-5.1 2.3v17.4h-5.8v-24.9h5.8v3.3c1.9-2.4 4.7-3.8 7.7-3.8 2.8-.3 5.5 1.4 6.4 4.1 2.1-2.5 5.1-4 8.3-4.1 4.5-.1 6.9 2.8 6.9 8zm5.5 16.2v-4.6c2.6 1.3 5.4 2 8.3 2.1 3.6 0 4.5-1.8 4.5-3 0-2-2.3-2.7-4.9-3.8-3.3-1.2-7.4-2.8-7.4-7.7s3.6-8.2 10.3-8.2c2.8 0 5.6.7 8.1 2v4.5c-2-1.2-4.3-1.9-6.6-2-3.8 0-5.3 1.8-5.3 3.3s2.5 2.9 5.4 3.8c2.8 1 7 2.9 7 7.4 0 5.2-4.2 8.2-10 8.2-3.2 0-6.4-.7-9.4-2zm42.5-6.8-2.5 8.2h-6.1l12.1-34.2h5.2l11.7 34.2h-6.3l-2.6-8.2zm1.1-4.9h9.1l-4.6-14.3zm44.5-11.9v25h-5.7v-2.4c-2.1 1.9-4.9 2.9-7.7 2.9-4.8 0-7.1-2.9-7.1-8.1v-17.6h5.7v15.4c0 2.7 1.2 4.3 3.8 4.3 2-.2 3.8-1 5.3-2.3v-17.4zm13 18.4c-.2 1.2.7 2.3 1.9 2.5h.5c.7 0 1.4-.1 2.1-.2v4.3c-1.5.3-3 .4-4.5.4-4.4 0-5.8-2.4-5.8-6.5v-13.9h-3.1l.8-4.5h2.3v-6.1l5.8-1.5v7.7h4.8l-.8 4.5h-4.1v13.3zm29.9-10.9v17.3h-5.8v-15.4c0-2.8-1.2-4.2-3.5-4.2-2.1.1-4.1.9-5.7 2.2v17.4h-5.8v-33.8h5.8v11.1c2-1.7 4.6-2.7 7.2-2.8 4-.2 7.5 2.9 7.7 6.9 0 .4 0 .9-.1 1.3zm5.4 4.6c0-7.4 3.5-13 11.1-13s11.2 5.7 11.2 13-3.5 13-11.1 13-11.2-5.6-11.2-13zm5.3 0c0 4.8 1.8 8.7 5.8 8.7s5.7-3.8 5.7-8.7-1.8-8.7-5.7-8.7-5.8 3.9-5.8 8.7zm22.7 12.6v-24.8h5.9v4.8c1.6-3 4.7-4.9 8.1-4.8v4.6c-3.4-.1-6.5 1.7-8.1 4.7v15.6h-5.7zm17.8-30.3c.1-1.7 1.5-2.9 3.1-2.9s2.9 1.5 2.9 3.1c-.1 1.6-1.4 2.9-3 2.9-1.7 0-3-1.3-3-3.1zm5.9 30.3h-5.7v-24.1h5.7zm14.5-6.4c-.2 1.2.7 2.3 1.9 2.5h.5c.7 0 1.4-.1 2.1-.2v4.3c-1.5.3-3 .4-4.5.4-4.4 0-5.8-2.4-5.8-6.5v-13.9h-3l.8-4.5h2.3v-6.1l5.8-1.5v7.7h4.8l-.8 4.5h-4.1zm31.6-18.5-11.5 34h-5.5l2.4-7.2-9.5-26.9h6.5l5.6 19.2 5.8-19.2zm-642.6 25h-6.7l-7.7-11.5v11.5h-5.6v-33.8h5.7v19.2l7.1-10.9h6.5l-8.4 12.1zm196.9-60.4c-2.3.2-4 2.3-3.8 4.6.2 2 1.8 3.6 3.8 3.8 2.3-.2 4-2.3 3.8-4.6-.2-2-1.8-3.6-3.8-3.8zm-244.4-31.2h-5.5c-1.2-.7-2-1.9-2-3.3 0-1.5.8-2.1 2-2.1s2 .8 2.3 2.4h3.3c-.3-3.8-2.3-6-5.5-6-2.7-.1-4.9 1.9-5.1 4.6v.7c-.1 1.4.4 2.8 1.4 3.8h-2.3v3.5h11.3v-3.6zm9.9 13.6c0 2.7-1 4.9-4.4 4.9h-20.1c-3.1.1-5.7-2.3-5.8-5.4 0-.2 0-.4 0-.6v-8.9h-6.6v9c-.3 6.8 4.9 12.6 11.7 12.9h.7 22.5c4.7 0 8.5-3.8 8.5-8.5 0-.1 0-.3 0-.4v-32.8h-6.6zm17.6 12.5c.2 3.1-2.2 5.8-5.3 6.1-.2 0-.3 0-.5 0h-2.8v6.9h2.8c6.8 0 12.4-5.5 12.4-12.4 0-.2 0-.4 0-.6v-29.6h-6.6zm78.9 4.1c-2.3-.2-4.3 1.5-4.4 3.8-.2 2.3 1.5 4.3 3.8 4.4 2.3.2 4.3-1.5 4.4-3.8 0-.1 0-.2 0-.3-.1-2.1-1.7-3.9-3.8-4zm26.9-14.4c.1 1.3-.8 2.5-2.1 2.7-.1 0-.2 0-.2 0h-7.6c-1.2-.2-2.6-.3-5.8-8.1-5.8-12.8-14.8-17.9-25.1-13.9v6.3c8.6-3.5 13.7 0 17.9 8.5 1.1 2.5 2.4 4.9 3.8 7.2h-25.7c-2 0-3.6-1.5-3.7-3.5 0-.1 0-.2 0-.4v-6.6c.3-7-5.1-12.8-12-13.2-.2 0-.4 0-.6 0h-.6c-7 0-12.6 5.7-12.6 12.6v.6 6.7c.1 2-1.3 3.7-3.3 3.8-.1 0-.2 0-.4 0h-4.6c-1.3 0-2.4-1.1-2.4-2.4 0-.1 0-.2 0-.3v-32h-6.6v34.6c-.1 3.8 2.9 7.1 6.7 7.2h.2 6.8c3 .1 5.9-1.4 7.7-3.8 2.6 2.3 6.1 3.6 9.6 3.6 3.1-.1 6-1.6 8-4.1 1.7 2.6 4.6 4.2 7.7 4.1h44.6c3.8 0 6.9-3.2 6.8-7 0-.1 0-.1 0-.2v-34.6h-6.6zm-55-3.9c.1 3.3-2.4 6-5.6 6.2-2.7.1-5.3-1.2-6.9-3.3v-6.9c-.3-3.2 2.1-6 5.3-6.2h.6.6c3.2-.1 5.9 2.4 6 5.6v.6zm76.1-28.3h-6.8v41.9h6.6zm20.1 11.1h-.6c-6.9 0-12.6 5.6-12.6 12.5v.8 4.2c-.3 7 5.1 12.8 12.1 13.2h7v1.1c0 4.8-3.5 7.5-14.8 5.4v6.4c13.9 3.4 21.4-1.7 21.4-10.1v-20.2c.3-6.9-5-12.7-11.9-13.1-.2 0-.5 0-.7 0zm5.9 23.7h-7c-3.3-.3-5.7-3-5.6-6.3v-4.2c-.2-3.2 2.2-6 5.4-6.2h.6.6c3.2-.1 5.9 2.5 5.9 5.7v.6zm31.9-28.5c2.3.2 4.3-1.5 4.4-3.8.2-2.3-1.5-4.3-3.8-4.4s-4.3 1.5-4.4 3.8v.3c-.1 2.2 1.5 4.1 3.7 4.3zm11.2 0c2.3 0 4.1-1.9 4.1-4.2s-1.9-4.1-4.1-4.1c-2.3 0-4.1 1.9-4.1 4.2 0 2.2 1.9 4.1 4.1 4.1zm47 41.3c-2.2.2-3.8 2-3.8 4.1.2 2.1 2 3.7 4.1 3.5s3.7-2 3.5-4.1c-.2-2-1.8-3.5-3.8-3.5zm3.8-12.9v-21.2h-6.7v18.8c.1 1.4-.9 2.6-2.2 2.7-.1 0-.1 0-.2 0h-11.9c-3.3 0-4.4-2.2-4.4-4.9v-1c0-.6 0-1.1 0-1.7v-13.8h-6.6v16.7c0 2.6-1 4.7-4.3 4.7h-4.5c-2 .1-3.7-1.4-3.8-3.4 0-.2 0-.3 0-.5v-20h-13c-6.9 0-12.5 5.7-12.5 12.6v.6 4.1c-.2 7 5.2 12.9 12.2 13.2 3.4.1 6.7-1.3 8.9-3.8 2 2.5 5 3.9 8.2 3.8h4.5c2.9.1 5.8-1.1 7.7-3.3 1.7 2 4.2 3.2 6.8 3.3h15c3.8 0 6.9-3.1 6.8-6.9v-.1zm-51.1-3.2c-1.6 2.1-4.1 3.4-6.8 3.3-3.3-.1-5.8-2.9-5.6-6.2 0 0 0 0 0-.1v-4.1c-.3-3.2 2.1-6 5.3-6.2h.6 6.5zm36.2 16.1c-2.3.2-4 2.3-3.8 4.6.2 2 1.8 3.6 3.8 3.8 2.3-.2 4-2.3 3.8-4.6-.2-2-1.8-3.6-3.8-3.8zm69.3-39.9c2.3.2 4.3-1.5 4.5-3.8s-1.5-4.3-3.8-4.5-4.3 1.5-4.5 3.8v.3c0 2.2 1.6 4.1 3.8 4.2zm23.8 24.6c.1 1.3-.8 2.5-2.1 2.7-.1 0-.2 0-.2 0h-6.6v-5.3c0-12.3-4.8-18-14.6-18-6.3 0-11.8 4.5-16.3 9.9v-7h-6.6v20.4h-9.1v-22h-6.7v29.6c.3 3.1-2 5.8-5.1 6.1-.2 0-.4 0-.6 0h-2.8v6.9h2.8c6.8 0 12.4-5.5 12.4-12.4 0-.2 0-.4 0-.6v-.7h55.3c3.8 0 6.9-3.2 6.8-7 0-.1 0-.1 0-.2v-34.6h-6.6zm-15.3 2.7h-24.6v-6.9c5.1-6.3 10.3-9.6 15.4-9.6s9.1 3.2 9.1 11.2zm36.2-34.6h-6.6v41.5h6.6zm20.2 11.1h-.6c-6.9 0-12.6 5.6-12.6 12.5v.6 4.2c-.2 7 5.2 12.8 12.1 13.2h6.9v1.1c0 4.8-3.5 7.5-14.8 5.4v6.4c13.9 3.4 21.4-1.7 21.4-10.1v-20.4c.3-6.9-5-12.8-11.9-13.1-.1 0-.3 0-.4 0zm5.9 23.5h-6.9c-3.3-.3-5.7-3-5.6-6.3v-4.2c-.2-3.2 2.2-6 5.4-6.2h.6.6c3.2-.1 5.9 2.5 5.9 5.7v.6zm43-27.7c2.3 0 4.1-1.9 4.1-4.2s-1.9-4.1-4.1-4.1c-2.3 0-4.1 1.9-4.1 4.2-.1 2.2 1.8 4.1 4.1 4.1zm-11.2 0c2.3.2 4.3-1.5 4.4-3.8.2-2.3-1.5-4.3-3.8-4.4s-4.3 1.5-4.4 3.8v.3c0 2.3 1.7 4.1 4 4.2h-.2zm4.9 3.8h-.9c-6.9.1-12.4 5.8-12.3 12.7v5.1c-.2 6.9 5.2 12.6 12.1 12.7h.2 1.4c6.6-.3 11.7-5.8 11.5-12.3v-5.3c.2-6.8-5.1-12.5-11.9-12.8zm5.7 18.9c.1 2.8-2.1 5.1-4.9 5.1h-1.7c-3.2-.1-5.7-2.7-5.6-5.9v-5.2c-.2-3.1 2.2-5.7 5.3-5.9h.4.9c3.1 0 5.6 2.4 5.6 5.5v.4zm76.7-22.4c2.3.2 4.3-1.5 4.5-3.8s-1.5-4.3-3.8-4.5-4.3 1.5-4.5 3.8v.3c-.1 2.2 1.6 4 3.8 4.2zm13.5 24.7c.1 1.3-.8 2.5-2.1 2.7-.1 0-.2 0-.2 0h-7.7v-22h-6.6v29.6c.3 3.1-2 5.8-5.1 6.1-.2 0-.4 0-.6 0h-2.8v6.9h2.8c6.8 0 12.4-5.5 12.4-12.4 0-.2 0-.4 0-.6v-.7h9.9c3.8 0 6.8-3.1 6.8-6.9 0-.1 0-.2 0-.2v-34.6h-6.8zm21.1-32.1h-6.6v41.7h6.6zm26.3 6.2c2.3.2 4.3-1.5 4.4-3.8s-1.5-4.3-3.8-4.4-4.3 1.5-4.4 3.8v.3c0 2.1 1.6 3.9 3.7 4.1zm11.3 0c2.3 0 4.1-1.9 4.1-4.2s-1.9-4.1-4.1-4.1c-2.3 0-4.1 1.9-4.1 4.2-.1 2.3 1.8 4.1 4.1 4.1zm26.9-2.1h-6c-1.3-.7-2-2-2-3.4 0-1.5.7-2.2 2-2.2s2.2.9 2.4 2.5h3.4c-.3-4.2-2.5-6.3-5.8-6.3-2.8-.2-5.2 1.9-5.4 4.8v.9c0 1.4.4 2.8 1.3 3.8h-2v3.8h12.3v-3.9zm10 43.2c-2.3-.2-4.3 1.5-4.5 3.8s1.5 4.3 3.8 4.5 4.3-1.5 4.5-3.8c0-.1 0-.2 0-.4 0-2.3-1.8-4.1-4.1-4.1h-.1zm11.3 0c-2.3-.2-4.3 1.5-4.5 3.8s1.5 4.3 3.8 4.5 4.3-1.5 4.5-3.8c0-.1 0-.2 0-.4 0-2.3-1.9-4.1-4.1-4.1zm21.6-35.2v3.5c-4.8 1.1-8.2 5.4-8.2 10.4v3.2c0 2 .7 4 2 5.6h-12.6c-3.3 0-4.4-2.2-4.4-4.9v-1c0-.6 0-1.2 0-1.7v-13.8h-6.6v16.7c0 2.6-1 4.7-4.3 4.7h-7.1c-3.4 0-4.4-2.2-4.4-4.9v-16.5h-6.5v16.4c0 2.7-.9 4.9-4.3 4.9h-3.4c-2 .2-3.7-1.3-3.8-3.3 0-.2 0-.4 0-.6v-19.8h-13c-6.9 0-12.5 5.7-12.5 12.6v.6 4.1c-.2 7 5.2 12.9 12.2 13.2 3.4.2 6.7-1.3 8.9-3.8 2 2.5 5 3.9 8.2 3.8h3.4c2.9.1 5.8-1.1 7.7-3.3 1.7 2 4.1 3.3 6.8 3.3h7.7c2.9.1 5.8-1.1 7.7-3.3 1.7 2 4.2 3.3 6.8 3.3h36.7c6.9-.1 12.5-5.8 12.3-12.8v-.1-4c-.1-9.8-11.8-17-29.5-12.5zm-69.9 19.2c-1.6 2.2-4.2 3.4-6.8 3.3-3.3-.2-5.8-2.9-5.6-6.2v-4.2c-.3-3.2 2.1-6 5.2-6.2h.4 6.5zm78.7 3.6h-5.8c-3-.2-5.3-2.7-5.4-5.7v-2.7c-.3-3.1 2-5.8 5.1-6 3.1-.3 5.8 2 6 5.1v.9 8.4zm8.4 0h-2.8v-8.3c.3-4.3-2.5-8.2-6.7-9.2 8.6-.9 15.4 2.7 15.4 7.4v3.8c.2 3.3-2.4 6.1-5.7 6.3-.2 0-.3 0-.5 0zm-174.6-4.6c.2 6.1-4.6 11.3-10.7 11.5h-.1-29.8c-3.8 0-6.9-3.2-6.8-7 0-.1 0-.1 0-.2v-34.6h6.6v32c-.1 1.4.9 2.6 2.2 2.7h.2 27c2.8-.1 4.9-2.4 4.8-5.2 0-.1 0-.2 0-.3.1-3.1-2.4-5.7-5.5-5.7-.3 0-.6 0-.9 0h-17.2l-1.2-5.1 10.1-18.6 6.1 2.4-7.7 14.3h10.1c7.2.1 13 6.1 12.8 13.4z" fill="#575757"/><path d="m505.7 281.3-1.5-2.2-112.6 80.3 1.4 2.3z" fill="url(#b)"/><path d="m483.4 282.7-1.5-2.3-90.3 64.4 1.5 2.2z" fill="url(#c)"/><path d="m456 287.5-1.5-2.3-63 45 1.5 2.2z" fill="url(#d)"/><path d="m419.3 299-1.5-2.3-26.2 19 1.5 2.2z" fill="url(#e)"/><path d="m562.2 382.8-18.5 13-93.7 66.9 1.9 2.9-12.7 9.3 1 1.5-27.2 19.9 1.5 2.2 30-21.9 10.1-7.1 95.4-68.2-1.9-3 16.8-12-.9-1.5 61.3-43.7-1.4-2.2z" fill="url(#f)"/><path d="m567.4 393.6-19.6 13.9-90.9 64.9 1.9 2.9-13.7 10 1 1.4-26.7 19.5 1.5 2.2 26.7-19.6 13.6-9.9 91.2-65.1-1.9-3 19.5-13.6-1-1.5 56.1-39.9-1.5-2.2z" fill="url(#g)"/><path d="m572.4 404.7-16.2 11.5-92.9 66.2 1.9 3-12.5 9.1 1 1.4-26.9 19.7 1.5 2.2 26.9-19.7 12.5-9.2 92.9-66.2-1.9-3 16.2-11.5-.9-1.5 50.9-36.4-1.5-2.2z" fill="url(#h)"/><path d="m580 413.7-15.7 11.4-94 66.6 2 3-15.7 11.7 1 1.5-22.2 16.3 1.5 2.2 25.4-18.6 17.1-12.4 90-64.2-1.9-3 15.2-10.9-1-1.5 43.2-30.8-1.5-2.2z" fill="url(#i)"/><path d="m589.4 421.5-17.6 12.5-81.4 58 1.9 2.9-19.3 14.1 1 1.5-30.1 22 1.5 2.2 32.7-23.9 16.5-12.1 81.9-58.4-1.9-3 17.1-12.2-.9-1.5 33.8-23.9-1.5-2.3z" fill="url(#j)"/><path d="m610.3 422.2-.5-.7-20.6 14.7-78.7 56.2 2 3-21.2 15.7.9 1.5-37.2 27.2 1.5 2.2 40-29.4 20.5-15 76.5-54.8-1.9-2.9 20.6-14.7-1.2-1.8.7 1.1 12.8-9.5-1.5-2.2z" fill="url(#k)"/><path d="m610.7 435.4-11.6 8.2-46.3 33.1 1.9 3-19.7 14.5 1 1.5-70.7 51.7 1.5 2.2 73.4-53.7 17.2-12.5 45.9-32.7-1.9-3 11.6-8.2-.9-1.5 12.1-8.7-1.5-2.3z" fill="url(#l)"/><path d="m613 448.8v-.4l-10.9 7.8-36.7 26.2 2 3-17.2 12.5 1 1.5-74.5 54.5 1.5 2.2 78-57.2 15-11 35-25.2-1.9-2.9 10.9-7.6-1.2-1.8 8.5-6-.9-1.5z" fill="url(#m)"/><path d="m402.1 376.4 10.5-7.6 39.6-28.2-1.9-3 17.4-12.4-.9-1.4 58.6-42-1.4-2.2-59 41.9-17.4 12.4-42 29.9 1.9 3-10 7.2 1 1.5-7.3 5.2 1.5 2.2z" fill="url(#n)"/><path d="m408.5 386.3 10.5-7.6 48.9-34.9-1.9-3 13.5-9.7-.9-1.4 63.6-45.9-1.5-2.2-63.7 46-13.5 9.7-52.1 37.1 1.9 3-9 6.6.9 1.5-13.7 10 1.5 2.2z" fill="url(#o)"/><path d="m410.8 399.2 13.7-10 53.3-38-1.9-3 14.3-10.2-.9-1.4 68.8-49.5-1.5-2.3-68.8 49.5-15 10.5-55.8 39.9 1.9 3-12.1 8.8 1 1.5-16.6 12.3 1.5 2.2z" fill="url(#p)"/><path d="m416.3 409.8 14.9-10.9 56.7-40.4-1.9-3 15.1-10.8-1-1.6 73.4-51.9-1.5-2.2-74.7 52.5-14.2 10.2-60.8 43.3 2 3-13.9 10.2 1 1.5-19.8 15.1 1.5 2.3z" fill="url(#q)"/><path d="m423.1 419.5 9.7-7 65.3-46.6-2-2.8 16.9-12-.9-1.5 74.1-53-1.5-2.3-74.1 53-16.9 12.1-65.3 46.3 1.9 3-12.4 9.1 1 1.5-26.2 19.1 1.5 2.3 29-21z" fill="url(#r)"/><path d="m429.5 429.4 11-8 67.5-48.2-1.9-3 18.7-13.3-.9-1.4 76.1-54.3-1.4-2.2-76.1 54.2-19.8 14.2-68.7 48.9 1.9 3-11.8 8.6.9 1.5-30.2 22.1 1.5 2.2z" fill="url(#s)"/><path d="m431.4 442.7 15.7-11.5 79.7-56.5-2-3 17.6-12.6-.9-1.4 70.7-50.4-1.5-2.2-70.7 50.4-18.2 12.9-82.6 58.6 1.9 3-14.7 10.8 1 1.5-29.3 21.4 1.5 2.3z" fill="url(#t)"/><path d="m433.6 455.7 14-10.2 86.3-61.5-1.9-2.9 17.7-12.8-.9-1.4 74.8-53.4-1.5-2.3-74.8 53.4-17.7 12.6-88.4 63 1.9 3-15 11 1 1.5-26.9 19.6 1.5 2.2z" fill="url(#u)"/><path d="m436.1 468.3 11.9-8.7 92.3-65.8-1.9-3 16.8-12-.9-1.5 70.8-50.4-1.5-2.3-70.7 50.4-16.9 12-92.3 65.8 1.9 3-14 10.2 1 1.5-25.3 18.5 1.5 2.3 27.5-19.9z" fill="url(#v)"/><path d="m487 560.5 1.5 2.2 127.7-93-1.5-2.2z" fill="url(#w)"/><path d="m497.8 567.6 1.5 2.2 107.5-78.7-1.5-2.3z" fill="url(#x)"/><path d="m535.9 554.6 1.5 2.2 47.2-34.5-1.5-2.2z" fill="url(#y)"/></g></svg>