<svg version="1.2" xmlns="http://www.w3.org/2000/svg" viewBox="0 0 1710 3102" width="1710" height="3102">
	<title>مشروع جديد</title>
	<style>
		.s0 { fill: #066e43 } 
	</style>
	<g id="مجلد 2">
		<path class="s0" d="m0.1 3.2v1710h1709.9v-1710zm1268.6 803.4c92.9 122.3 144.5 211.8 144.5 211.8-31.7 55.6-67.3 115-106.6 178.3 0 0-57.2-95.8-159.4-230.3-51.5-67.7-183.4-218.7-185.4-220.9 0.2 3-0.1 659.6 0.3 721.6l-0.3-0.2c0 0.3 0 0.6 0 0.8h-213.8c0.4-61.9 0.2-719.2 0.3-722.2-2 2.1-133.9 153.2-185.4 220.9-102.1 134.4-159.3 230.2-159.3 230.2-39.3-63.3-74.9-122.7-106.7-178.3 0 0 51.6-89.4 144.5-211.8 41.1-54 140.3-166.1 165.1-194-70.4 13-135.9 29.8-184.9 46-47.1 15.6-83.1 31-106.8 42.1-22.4 10.5-34.5 17.3-34.5 17.3 14.8-57.6 31.5-109.8 50.4-155.2 0 0 11.3-8 32.4-20.4 22.1-12.9 55.8-30.7 99.8-48.4 46.6-18.6 104.9-37.1 171.6-50.9-1.9-1.4-44-35.4-60.7-46.1-76.7-49.6-107-33.6-107-33.6 38.3-27.5 76.9-49.8 115.1-65.7 0 0 5.9-3.5 17.4-6.3 12.3-2.9 31.9-4.5 57.5 0.4 28.7 5.6 111 44.2 112.4 44.9 0.1-1.2 3.9-38.2 5.3-51.3 3.9-38.3 12.4-36 19.1-36.6h122.8c6.7 0.6 15.2-1.7 19.1 36.6 1.4 13.1 5.3 50.1 5.3 51.3 1.4-0.7 83.8-39.3 112.4-44.9 25.6-4.9 45.2-3.3 57.5-0.4 11.5 2.8 17.4 6.3 17.4 6.3 38.3 15.9 76.9 38.1 115.1 65.7 0 0-30.2-16-107 33.6-16.6 10.7-58.8 44.7-60.7 46.1 66.6 13.7 125 32.3 171.6 50.9 44 17.7 77.7 35.5 99.8 48.4 21.2 12.4 32.4 20.4 32.4 20.4 19 45.5 35.6 97.7 50.4 155.2 0 0-12-6.7-34.5-17.3-23.6-11-59.7-26.4-106.8-42.1-48.9-16.2-114.5-33-184.9-46 24.9 27.9 124.1 140.1 165.2 194.1z"/>
		<path class="s0" d="m1193.8 1879l139.9 153.8h376.3v-97h-225.5c-10 17.2-28.4 28.9-49.7 28.9-31.8 0-57.6-25.9-57.6-57.7 0-31.8 25.8-57.6 57.6-57.6 21.9 0 40.7 12.3 50.4 30.3h224.8v-54.5h-1709.9v53.8z"/>
		<path class="s0" d="m1308.9 2089l-139.9-153.8h-1168.9v83.6h241.7c9.8-17.9 28.6-30.2 50.4-30.2 31.8 0 57.6 25.8 57.6 57.6 0 31.8-25.8 57.6-57.6 57.6-21.3 0-39.7-11.6-49.6-28.8h-242.5v100.1h351.9l168-157h491.5c9.8-17.9 28.6-30.2 50.5-30.2 31.8 0 57.6 25.8 57.6 57.6 0 31.8-25.8 57.6-57.6 57.6-21.3 0-39.7-11.6-49.7-28.8h-470.1l-167.9 157h-374.2v54.4h1709.9v-196.7zm286.8 158.7c-21.4 0-39.7-11.7-49.7-28.9h-901c-10 17.2-28.4 28.9-49.7 28.9-31.8 0-57.6-25.8-57.6-57.6 0-31.8 25.8-57.6 57.6-57.6 21.9 0 40.7 12.3 50.4 30.2h899.5c9.8-17.9 28.6-30.2 50.5-30.2 31.8 0 57.6 25.8 57.6 57.6 0 31.8-25.8 57.6-57.6 57.6z"/>
		<path class="s0" d="m0.1 3.2v1708h1708v-1708zm1267.1 802.4c92.8 122.2 144.4 211.6 144.4 211.6-31.7 55.5-67.3 114.9-106.5 178.1 0 0-57.1-95.8-159.2-230-51.4-67.7-183.1-218.5-185.2-220.7 0.2 3-0.1 658.9 0.3 720.7l-0.3-0.1c0 0.2 0 0.6 0 0.8h-213.6c0.5-61.9 0.3-718.5 0.3-721.4-1.9 2.1-133.7 153-185.2 220.6-102 134.3-159.1 230-159.1 230-39.3-63.2-74.9-122.6-106.5-178.1 0 0 51.5-89.4 144.3-211.5 41-54 140.1-166 164.9-193.9-70.3 12.9-135.8 29.7-184.6 46-47.1 15.6-83.1 31-106.7 42-22.4 10.5-34.5 17.2-34.5 17.2 14.8-57.5 31.4-109.6 50.4-155 0 0 11.2-8 32.4-20.3 22-12.9 55.7-30.7 99.7-48.3 46.5-18.7 104.8-37.2 171.3-50.9-1.9-1.4-44-35.4-60.6-46.1-76.7-49.5-106.9-33.5-106.9-33.5 38.2-27.5 76.7-49.8 115-65.7 0 0 5.9-3.4 17.4-6.2 12.3-2.9 31.8-4.5 57.4 0.4 28.6 5.5 110.9 44.1 112.3 44.9 0.1-1.3 3.9-38.2 5.3-51.3 3.9-38.3 12.3-35.9 19.1-36.5h122.6c6.7 0.6 15.1-1.8 19 36.5 1.4 13.1 5.3 50.1 5.3 51.3 1.4-0.8 83.7-39.4 112.3-44.9 25.6-4.9 45.1-3.3 57.4-0.4 11.5 2.8 17.5 6.2 17.5 6.2 38.1 15.9 76.7 38.2 114.9 65.7 0 0-30.2-16-106.9 33.5-16.6 10.7-58.7 44.7-60.6 46.1 66.5 13.7 124.9 32.2 171.3 50.9 44 17.6 77.6 35.4 99.7 48.3 21.1 12.3 32.4 20.3 32.4 20.3 19 45.5 35.7 97.6 50.4 155 0 0-12-6.7-34.5-17.2-23.6-11-59.6-26.4-106.7-42-48.8-16.3-114.3-33.1-184.6-46 24.9 28 123.9 140.1 164.9 193.9z"/>
		<path class="s0" d="m200.3 2465.7c-9.5-7.7-18.9-13.4-28.4-17-9.5-3.8-18.6-5.6-27.5-5.6-11.2 0-20.4 2.7-27.5 8q-10.6 8.1-10.6 20.9c0 5.9 1.8 10.8 5.3 14.6 3.6 3.8 8.2 7.2 14 10 5.8 2.8 12.3 5.2 19.5 7.3 7.3 2.1 14.4 4.3 21.6 6.6q42.5 14.3 62.3 38c13.1 15.8 19.7 36.4 19.7 61.9 0 17.1-2.9 32.6-8.6 46.5-5.8 13.9-14.2 25.8-25.3 35.7-11.1 9.9-24.7 17.6-40.8 23.1-16.2 5.5-34.4 8.3-54.8 8.3-42.3 0-81.5-12.6-117.5-37.7l37.2-70.1c13.1 11.5 25.9 20.1 38.6 25.7 12.8 5.6 25.3 8.4 37.7 8.4 14.2 0 24.8-3.3 31.7-9.8 7-6.4 10.5-13.9 10.5-22.1 0-5-0.9-9.4-2.7-13.1-1.8-3.7-4.7-7.1-8.9-10.2q-6.2-4.7-16.2-8.6c-6.6-2.7-14.7-5.7-24.2-8.9-11.2-3.6-22.2-7.5-33-11.8-10.8-4.3-20.4-9.9-28.8-17.1q-12.7-10.6-20.4-26.8-7.8-16.2-7.8-41.1c0-16.5 2.7-31.5 8.2-45q8.2-20.1 23.1-34.5c9.9-9.6 22-17.1 36.4-22.4 14.3-5.4 30.3-8 48.1-8 16.6 0 33.8 2.3 51.9 6.9q27.1 6.8 51.9 20.2z"/>
		<path class="s0" d="m569.2 2656.4h-124.1l-20 58.1h-92.7l127.3-334.4h94.8l127.3 334.4h-92.7zm-23-66l-39.1-111.4-39 111.4z"/>
		<path class="s0" d="m865.1 2380.1v181.9c0 9.7 0.4 19.7 1.1 29.9q1.1 15.3 6.7 27.8c3.6 8.2 9.5 15 17.5 20.1q11.9 7.8 33.7 7.8c14.5 0 25.6-2.6 33.5-7.8q11.8-7.7 17.5-20.1 5.8-12.5 6.9-27.8 1.1-15.3 1.1-29.9v-181.9h86.5v193.9q0 78-35.7 113.9c-23.9 24-60.4 36-109.8 36q-74.1 0-110-36-35.9-35.9-35.9-113.9v-193.9z"/>
		<path class="s0" d="m1207 2380.1h128.6q34.1 0 64.1 13.8c20 9.2 37.4 21.3 52.4 36.6 14.9 15.2 26.7 32.9 35.2 53.2 8.6 20.2 12.9 41.5 12.9 63.7 0 21.8-4.2 43-12.7 63.2q-12.6 30.3-35 53.5c-15 15.3-32.4 27.6-52.4 36.8-19.9 9.1-41.4 13.7-64.5 13.7h-128.6zm87 260.8h20c15 0 28.5-2.4 40.4-7.1 11.8-4.8 21.7-11.2 29.9-19.5 8.1-8.3 14.3-18.2 18.6-29.6q6.4-17.1 6.4-37.4 0-20-6.6-37.3-6.7-17.3-18.9-29.7c-8.1-8.3-18.1-14.7-29.9-19.5-11.9-4.7-25.2-7.1-39.9-7.1h-20z"/>
		<path fill-rule="evenodd" class="s0" d="m1710 2380.1v334.4h-87v-334.4z"/>
		<path class="s0" d="m130 2877.1v214.1h-71.4v-214.1h-58.6v-60.4h188.6v60.4z"/>
		<path class="s0" d="m423.8 2877.1h-84.8v45.9h80.1v60.4h-80.1v47.4h84.8v60.4h-156.2v-274.5h156.2z"/>
		<path class="s0" d="m720.1 2908.4q-24.8-30.2-61.1-30.2c-10.7 0-20.6 2-29.7 5.8q-13.7 5.9-23.5 15.9c-6.5 6.6-11.7 14.6-15.4 23.8-3.8 9.2-5.7 19.1-5.7 29.8q0 16.4 5.7 30.3c3.7 9.1 9 17.2 15.6 24 6.7 6.7 14.6 12.1 23.5 16 9 3.9 18.7 5.8 29.1 5.8 22.8 0 43.3-9.7 61.5-29.1v84.4l-7.2 2.6c-11 3.9-21.2 6.7-30.7 8.5-9.4 1.8-18.7 2.8-28 2.8-18.9 0-37.1-3.7-54.4-10.8q-26-10.7-45.9-30.2-19.8-19.5-31.8-46.3c-8.1-17.8-12-37.3-12-58.3 0-21.2 3.9-40.5 11.8-58.1q11.8-26.4 31.7-45.5c13.2-12.8 28.5-22.7 46-29.9 17.5-7.1 35.8-10.7 55-10.7q16.4 0 32.2 3.5 15.9 3.4 33.3 10.7z"/>
		<path class="s0" d="m895.6 2922.7h103v-106h71.4v274.5h-71.4v-113.1h-103v113.1h-71.4v-274.5h71.4z"/>
	</g>
</svg>