<svg width="718" height="312" viewBox="0 0 718 312" fill="none" xmlns="http://www.w3.org/2000/svg">
<path d="M346.97 28.7898C344.15 26.4898 341.33 24.7998 338.5 23.6998C335.68 22.5998 332.95 22.0298 330.3 22.0298C326.95 22.0298 324.22 22.8198 322.1 24.4098C319.98 25.9998 318.92 28.0798 318.92 30.6298C318.92 32.3998 319.45 33.8698 320.51 35.0098C321.57 36.1498 322.96 37.1498 324.68 37.9798C326.4 38.8098 328.34 39.5498 330.5 40.1598C332.67 40.7698 334.81 41.4398 336.92 42.1398C345.38 44.9698 351.59 48.7398 355.51 53.4698C359.43 58.1798 361.4 64.3298 361.4 71.9098C361.4 77.0198 360.53 81.6697 358.82 85.7997C357.1 89.9597 354.58 93.4798 351.28 96.4498C347.98 99.3798 343.92 101.69 339.12 103.31C334.31 104.94 328.86 105.76 322.78 105.76C310.17 105.76 298.49 102.03 287.72 94.5298L298.83 73.6298C302.71 77.0698 306.55 79.6198 310.34 81.2898C314.12 82.9798 317.87 83.8198 321.58 83.8198C325.81 83.8198 328.96 82.8398 331.03 80.9098C333.11 78.9698 334.15 76.7498 334.15 74.2898C334.15 72.7998 333.88 71.4997 333.35 70.3997C332.82 69.2997 331.94 68.2798 330.7 67.3398C329.47 66.4198 327.86 65.5698 325.87 64.7798C323.88 63.9798 321.48 63.1098 318.66 62.1298C315.31 61.0698 312.03 59.9098 308.81 58.6298C305.59 57.3498 302.72 55.6598 300.21 53.5398C297.7 51.4198 295.67 48.7498 294.12 45.5398C292.58 42.3198 291.81 38.2497 291.81 33.2997C291.81 28.3697 292.63 23.8898 294.26 19.8798C295.89 15.8698 298.18 12.4498 301.14 9.56976C304.09 6.69976 307.7 4.47977 311.98 2.88977C316.26 1.29977 321.04 0.509766 326.33 0.509766C331.27 0.509766 336.43 1.19976 341.81 2.56976C347.19 3.92976 352.34 5.92974 357.28 8.57974L346.97 28.7898Z" fill="#066E43"/>
<path d="M438.42 85.5899H401.25L395.28 102.96H367.54L405.63 2.87988H434.03L472.12 102.96H444.38L438.42 85.5899ZM431.51 65.7999L419.84 32.4799L408.16 65.7999H431.51Z" fill="#066E43"/>
<path d="M505.51 2.88965V57.3196C505.51 60.2196 505.62 63.2296 505.85 66.2696C506.06 69.3096 506.73 72.0996 507.84 74.5696C508.94 77.0396 510.69 79.0496 513.07 80.5996C515.46 82.1496 518.82 82.9296 523.16 82.9296C527.5 82.9296 530.84 82.1496 533.18 80.5996C535.52 79.0496 537.27 77.0396 538.43 74.5696C539.57 72.0996 540.26 69.3196 540.48 66.2696C540.7 63.2296 540.82 60.2196 540.82 57.3196V2.88965H566.7V60.8996C566.7 76.4796 563.13 87.8396 556.02 95.0196C548.9 102.17 537.94 105.75 523.16 105.75C508.38 105.75 497.42 102.17 490.25 95.0196C483.08 87.8396 479.5 76.4796 479.5 60.8996V2.88965H505.51Z" fill="#066E43"/>
<path d="M587.66 2.88965H626.15C632.97 2.88965 639.35 4.27962 645.33 7.01962C651.3 9.75962 656.52 13.3996 660.98 17.9596C665.45 22.5196 668.96 27.8296 671.53 33.8996C674.1 39.9496 675.38 46.3096 675.38 52.9296C675.38 59.4896 674.12 65.7896 671.6 71.8596C669.08 77.9096 665.58 83.2396 661.12 87.8396C656.65 92.4396 651.43 96.1196 645.45 98.8596C639.48 101.6 633.04 102.97 626.14 102.97H587.65V2.88965H587.66ZM613.67 80.9296H619.65C624.15 80.9296 628.18 80.2296 631.72 78.7996C635.26 77.3896 638.25 75.4496 640.68 72.9796C643.11 70.5096 644.97 67.5596 646.25 64.1496C647.54 60.7396 648.18 56.9996 648.18 52.9296C648.18 48.9696 647.52 45.2396 646.19 41.7896C644.86 38.3396 642.98 35.3696 640.55 32.8996C638.12 30.4296 635.13 28.4596 631.59 27.0596C628.06 25.6496 624.07 24.9296 619.66 24.9296H613.68V80.9296H613.67Z" fill="#066E43"/>
<path d="M718 2.88965H691.99V102.97H718V2.88965Z" fill="#066E43"/>
<path d="M329.67 153.87V231.44H303.81V153.87H282.57V131.97H350.91V153.87H329.67Z" fill="#066E43"/>
<path d="M421.62 153.87H390.88V170.49H419.9V192.39H390.88V209.54H421.62V231.44H365.02V131.96H421.62V153.87Z" fill="#066E43"/>
<path d="M514.5 165.22C508.52 157.92 501.13 154.27 492.34 154.27C488.47 154.27 484.89 154.98 481.59 156.38C478.29 157.79 475.45 159.7 473.08 162.12C470.7 164.54 468.84 167.42 467.47 170.76C466.11 174.11 465.43 177.71 465.43 181.58C465.43 185.54 466.11 189.19 467.47 192.53C468.83 195.87 470.72 198.78 473.14 201.24C475.56 203.7 478.4 205.64 481.65 207.04C484.9 208.45 488.42 209.15 492.2 209.15C500.47 209.15 507.9 205.63 514.5 198.6V229.21L511.86 230.14C507.9 231.55 504.21 232.58 500.78 233.24C497.35 233.9 493.97 234.23 490.62 234.23C483.76 234.23 477.18 232.93 470.9 230.34C464.61 227.75 459.07 224.1 454.28 219.39C449.48 214.68 445.64 209.1 442.74 202.63C439.84 196.16 438.39 189.11 438.39 181.45C438.39 173.79 439.82 166.79 442.68 160.41C445.54 154.03 449.36 148.54 454.16 143.92C458.95 139.3 464.52 135.7 470.85 133.1C477.18 130.51 483.83 129.21 490.77 129.21C494.73 129.21 498.62 129.63 502.45 130.46C506.27 131.3 510.3 132.59 514.52 134.35V165.22H514.5Z" fill="#066E43"/>
<path d="M563.58 170.37H600.92V131.98H626.78V231.46H600.92V190.43H563.58V231.46H537.72V131.98H563.58V170.37Z" fill="#066E43"/>
<path d="M0 0.819824V233.59H232.77V0.819824H0ZM172.69 110.17C185.34 126.82 192.37 139 192.37 139C188.05 146.56 183.2 154.66 177.85 163.27C177.85 163.27 170.06 150.23 156.16 131.93C149.15 122.71 131.2 102.15 130.92 101.86C130.93 102.26 130.91 191.65 130.96 200.08L130.91 200.07C130.91 200.1 130.91 200.15 130.91 200.18H101.81C101.87 191.75 101.84 102.26 101.85 101.86C101.58 102.16 83.62 122.71 76.61 131.93C62.7 150.23 54.92 163.27 54.92 163.27C49.57 154.65 44.72 146.56 40.4 139C40.4 139 47.43 126.82 60.08 110.17C65.66 102.82 79.17 87.5498 82.55 83.7498C72.97 85.5098 64.04 87.7998 57.39 90.0098C50.97 92.1398 46.06 94.2398 42.85 95.7398C39.79 97.1698 38.16 98.0898 38.16 98.0898C40.17 90.2498 42.44 83.1498 45.02 76.9598C45.02 76.9598 46.55 75.8698 49.43 74.1898C52.44 72.4298 57.02 70.0098 63.01 67.5998C69.35 65.0598 77.29 62.5398 86.36 60.6598C86.1 60.4698 80.36 55.8398 78.1 54.3798C67.65 47.6298 63.53 49.8098 63.53 49.8098C68.73 46.0598 73.99 43.0298 79.19 40.8598C79.19 40.8598 80 40.3898 81.57 40.0098C83.24 39.6098 85.9 39.3898 89.39 40.0698C93.29 40.8198 104.5 46.0698 104.69 46.1798C104.7 46.0098 105.23 40.9798 105.41 39.1898C105.95 33.9698 107.1 34.2898 108.01 34.2098H124.72C125.64 34.2898 126.78 33.9698 127.32 39.1898C127.5 40.9698 128.03 46.0098 128.04 46.1798C128.23 46.0698 139.44 40.8198 143.34 40.0698C146.82 39.3998 149.49 39.6198 151.16 40.0098C152.73 40.3798 153.54 40.8598 153.54 40.8598C158.74 43.0298 164 46.0598 169.2 49.8098C169.2 49.8098 165.09 47.6298 154.63 54.3798C152.37 55.8398 146.63 60.4598 146.37 60.6598C155.44 62.5298 163.39 65.0598 169.72 67.5998C175.71 69.9998 180.3 72.4298 183.3 74.1898C186.18 75.8798 187.71 76.9598 187.71 76.9598C190.29 83.1498 192.57 90.2498 194.57 98.0898C194.57 98.0898 192.93 97.1698 189.88 95.7398C186.67 94.2298 181.76 92.1398 175.34 90.0098C168.69 87.7998 159.76 85.5198 150.18 83.7498C153.6 87.5498 167.11 102.83 172.69 110.17Z" fill="#066E43"/>
<path d="M162.51 256.16L181.55 277.1H232.77V263.9H202.07C200.71 266.24 198.21 267.83 195.31 267.83C190.98 267.83 187.46 264.32 187.46 259.98C187.46 255.65 190.97 252.13 195.31 252.13C198.29 252.13 200.84 253.81 202.17 256.25H232.77V248.84H0V256.16H162.51Z" fill="#066E43"/>
<path d="M178.17 284.75L159.13 263.81H0V275.2H32.9C34.23 272.76 36.79 271.08 39.76 271.08C44.09 271.08 47.61 274.59 47.61 278.93C47.61 283.26 44.1 286.78 39.76 286.78C36.86 286.78 34.36 285.19 33 282.85H0V296.48H47.91L70.78 275.11H137.69C139.02 272.67 141.58 270.99 144.55 270.99C148.88 270.99 152.4 274.5 152.4 278.84C152.4 283.17 148.89 286.69 144.55 286.69C141.65 286.69 139.15 285.1 137.79 282.76H73.8L50.93 304.13H0V311.54H232.77V284.76H178.17V284.75ZM217.2 306.35C214.3 306.35 211.8 304.76 210.44 302.42H87.79C86.43 304.76 83.93 306.35 81.03 306.35C76.7 306.35 73.18 302.84 73.18 298.5C73.18 294.17 76.69 290.65 81.03 290.65C84.01 290.65 86.56 292.33 87.89 294.77H210.33C211.66 292.33 214.22 290.65 217.19 290.65C221.52 290.65 225.04 294.16 225.04 298.5C225.05 302.84 221.53 306.35 217.2 306.35Z" fill="#066E43"/>
</svg>
